PathFileType	4	(X/Y/Z)	 s01c0102.trc
DataRate	CameraRate	NumFrames	NumMarkers	Units	OrigDataRate	OrigDataStartFrame	OrigNumFrames
200	200	5	48	mm	200	751	2000
Frame#	Time	racr			lacr			c7			jug			rlel			rdr			llel			ldr			s2			lic			ric			lasi			rasi			rpsi			lpsi			rgt			lgt			rth1			rth2			rth3			rth4			rlfc			rsh1			rsh2			rsh3			rsh4			rlmal			rmmal			rcal			rtoe			rmt5			lth1			lth2			lth4			lth3			llfc			lsh1			lsh2			lsh3			lsh4			llmal			lmmal			lcal			ltoe			lmt5			SBIKE			LBIKE			RBIKE			
		X1	Y1	Z1	X2	Y2	Z2	X3	Y3	Z3	X4	Y4	Z4	X5	Y5	Z5	X6	Y6	Z6	X7	Y7	Z7	X8	Y8	Z8	X9	Y9	Z9	X10	Y10	Z10	X11	Y11	Z11	X12	Y12	Z12	X13	Y13	Z13	X14	Y14	Z14	X15	Y15	Z15	X16	Y16	Z16	X17	Y17	Z17	X18	Y18	Z18	X19	Y19	Z19	X20	Y20	Z20	X21	Y21	Z21	X22	Y22	Z22	X23	Y23	Z23	X24	Y24	Z24	X25	Y25	Z25	X26	Y26	Z26	X27	Y27	Z27	X28	Y28	Z28	X29	Y29	Z29	X30	Y30	Z30	X31	Y31	Z31	X32	Y32	Z32	X33	Y33	Z33	X34	Y34	Z34	X35	Y35	Z35	X36	Y36	Z36	X37	Y37	Z37	X38	Y38	Z38	X39	Y39	Z39	X40	Y40	Z40	X41	Y41	Z41	X42	Y42	Z42	X43	Y43	Z43	X44	Y44	Z44	X45	Y45	Z45	X46	Y46	Z46	X47	Y47	Z47	X48	Y48	Z48	
751	3.7550	513.790341	1326.363007	-109.110733	508.691464	1309.646330	-410.551130	468.907327	1394.261761	-252.449278	458.840566	1231.637859	-253.440037	583.330321	1068.487122	-4.921082	740.537434	857.545110	-57.534353	518.883484	1042.417433	-528.572725	717.055030	891.937581	-432.490120	-59.634936	1176.160306	-207.220814	92.102924	1216.041234	-397.134487	112.871557	1172.582904	-71.059549	99.186646	1157.956041	-376.025899	135.280821	1127.984503	-97.318167	-25.763340	1211.171519	-154.591232	-40.839594	1225.402568	-257.685136	53.050597	1048.857720	-45.920366	53.798013	1099.699398	-428.425847	120.810782	939.096884	-26.621736	168.132439	871.841769	-31.784192	214.856391	794.959333	-39.824214	215.427789	901.314159	-39.207163	249.619100	686.399677	-66.555007	210.111008	577.786712	-37.245940	196.119348	494.348186	-43.302349	173.687874	408.976495	-55.646547	245.920410	486.003976	-76.380857	140.666663	295.784472	-79.003219	NaN	NaN	NaN	96.973407	301.906419	-132.905769	303.217960	124.899799	-137.565666	204.788989	158.558781	-61.766358	158.527370	1036.919031	-432.868824	247.473956	1035.220185	-435.608803	250.588184	1087.465154	-418.785369	331.867453	1022.815808	-424.514753	426.775012	978.862075	-413.159884	363.573712	896.988136	-427.415740	321.207249	820.313840	-428.852223	277.735190	746.461955	-417.373910	371.386390	793.151826	-405.251980	NaN	NaN	NaN	234.860164	614.428680	-322.537475	147.532298	594.708517	-361.462929	403.114836	491.217766	-369.071161	297.009796	505.854665	-435.310524	-223.772125	893.727916	-248.304721	-12.490546	85.328238	-454.321832	-20.779881	80.727676	-54.079996	
752	3.7600	514.246135	1325.846668	-110.247529	508.207869	1310.167637	-411.470394	468.938504	1394.281526	-253.176052	458.547630	1231.739381	-254.668556	583.370648	1068.535904	-5.451871	740.413292	857.170310	-56.813393	518.872874	1042.393256	-529.079432	716.913475	892.723722	-432.762797	-59.828441	1178.132802	-207.206024	90.796069	1218.051279	-397.119989	112.707964	1173.661661	-71.212150	98.660510	1160.046052	-376.186604	134.913946	1128.805773	-97.740890	-25.872765	1212.997540	-154.491304	-40.934597	1227.349464	-257.484204	52.902552	1050.494786	-46.093021	52.686815	1101.818984	-428.016912	121.993919	940.836969	-28.109865	170.306405	874.274108	-33.445406	218.114033	798.080981	-41.947254	217.083623	904.367746	-40.600100	252.587539	689.535653	-67.968157	211.074652	581.451656	-38.747281	195.371593	498.387999	-44.816134	171.209442	413.380563	-57.149945	244.688775	488.984985	-78.067330	135.155606	301.241548	-79.903993	171.559288	303.681880	-157.164365	91.587485	308.154513	-134.435305	292.803896	125.314418	-137.663144	195.461236	162.525319	-62.235298	157.313359	1037.169846	-432.456895	246.231918	1034.110861	-434.378297	249.865199	1086.522724	-418.014997	330.573610	1021.098798	-424.375129	425.264319	976.533950	-411.864239	363.629775	892.188725	-426.237771	321.992953	815.026437	-428.204834	279.455197	740.626880	-417.241406	372.464572	788.541062	-404.520651	NaN	NaN	NaN	239.135179	608.090746	-322.510020	152.126755	584.938895	-362.132559	411.903994	492.242604	-369.167863	305.440588	501.772448	-435.833179	-223.751155	893.752197	-248.255516	-12.484962	85.330541	-454.350247	-20.738939	80.746742	-54.075810	
753	3.7650	514.737287	1325.023233	-111.644528	507.781670	1310.678693	-412.293654	468.894115	1394.294200	-253.858592	458.279804	1231.757763	-255.820684	583.311706	1068.345845	-5.770343	740.762813	857.180516	-57.152648	519.159248	1042.442364	-529.514706	716.890543	893.458903	-432.868067	-59.934031	1180.059199	-207.315220	89.754134	1219.829633	-397.137389	112.540766	1174.669094	-71.498418	98.434811	1161.865190	-376.358312	134.578540	1129.794067	-98.169634	-26.025283	1214.711967	-154.472485	-40.986752	1229.088851	-257.380905	52.787701	1052.147511	-46.220440	51.603233	1103.528450	-427.458833	123.363872	942.577529	-29.695832	172.775430	876.619271	-35.199582	221.786931	801.378010	-44.154696	218.896491	907.432529	-42.305829	255.948038	692.785519	-69.516463	212.363804	585.294599	-40.297708	194.812189	502.641194	-46.418029	168.721395	418.225222	-58.600415	243.750330	492.161194	-79.963118	129.598356	306.989613	-80.755038	166.201237	308.128546	-157.952770	86.115108	314.734663	-135.964604	282.543557	126.690566	-137.692675	186.219343	166.951098	-62.815428	155.871357	1036.538002	-432.112795	244.689233	1031.970078	-433.683891	249.243352	1084.479094	-418.026341	328.510367	1017.307284	-422.360324	423.614800	972.453573	-410.773828	363.166333	885.952707	-425.594274	322.454628	808.189031	-427.499905	280.937591	733.376752	-417.128172	373.320878	782.494935	-403.938587	NaN	NaN	NaN	243.316840	600.864435	-322.464663	156.707027	574.313240	-362.774889	420.283712	492.537261	-369.251321	313.688867	496.923100	-436.422001	-223.705164	893.767302	-248.221425	-12.464468	85.362158	-454.347412	-20.712717	80.779448	-54.072985	
754	3.7700	515.170424	1324.210567	-113.065654	507.353151	1311.267663	-413.115117	468.767095	1394.385226	-254.522457	457.828855	1231.713731	-257.102415	583.167043	1067.991419	-5.816015	740.820603	857.005615	-56.868559	519.746412	1042.578138	-529.856421	716.950714	893.982633	-432.898816	-59.963830	1181.692156	-207.476605	89.227111	1221.481268	-397.392785	112.312184	1175.586493	-71.798970	98.305869	1163.241962	-376.426504	134.232148	1130.629098	-98.628272	-26.119423	1216.266298	-154.581054	-40.975455	1230.598403	-257.411973	52.739949	1053.769169	-46.392799	50.538492	1104.913815	-426.944255	124.956288	944.226875	-31.374485	175.455332	879.070947	-37.071218	225.706928	804.686608	-46.367702	220.782908	910.653068	-44.258313	259.843594	696.208032	-71.142352	213.909782	589.369929	-41.960907	194.404946	507.140504	-48.020025	166.272653	423.369460	-60.039280	243.026981	495.474819	-82.011470	123.924235	313.324100	-81.539512	161.213751	312.995449	-158.758248	80.554634	321.842874	-136.762241	272.472968	128.848245	-137.658073	177.099331	171.970560	-63.343413	154.410307	1035.169878	-431.813733	243.067920	1028.798392	-433.143872	248.543001	1081.454777	-418.019560	326.557571	1012.604519	-421.526769	421.830973	966.799819	-409.842430	362.445409	878.639690	-425.671086	323.031788	800.750852	-427.653382	282.476643	724.802243	-417.054962	374.070472	775.352620	-403.577826	NaN	NaN	NaN	247.450520	592.808512	-322.390164	161.335027	562.944504	-363.339844	428.201722	491.934183	-369.635797	321.395658	491.468125	-437.081678	-223.637680	893.763634	-248.235780	-12.424100	85.368833	-454.361225	-20.672791	80.774491	-54.087851	
755	3.7750	515.575704	1322.379583	-116.536506	506.957388	1312.000283	-413.813467	468.589880	1394.478491	-255.080472	457.521040	1231.658483	-258.056284	582.933642	1067.372754	-5.680730	740.796255	856.823079	-56.654677	520.472551	1042.602611	-530.327339	716.962452	894.305215	-432.816758	-59.998772	1183.181846	-207.712516	88.796475	1223.089500	-397.561964	112.019632	1176.533394	-72.156156	98.032655	1164.215251	-376.435638	133.114475	1131.790464	-99.730687	-26.538334	1217.989957	-154.436952	-40.956621	1231.952972	-257.579467	52.751244	1055.193772	-46.585330	49.540702	1105.865678	-426.463669	126.722426	945.879281	-32.977918	178.379442	881.568707	-38.962402	229.825543	808.063394	-48.661341	222.930329	913.891702	-46.258461	263.990944	699.720506	-72.849835	215.714058	593.653650	-43.578082	194.069532	512.036637	-49.595751	163.810408	428.883783	-61.418411	242.192232	499.054020	-83.907678	118.402078	320.154972	-82.295676	156.682682	318.497662	-159.768923	75.133808	329.351974	-138.052709	262.624348	131.884650	-137.500212	168.069173	177.661375	-63.787397	152.944564	1033.094173	-431.619118	241.434263	1024.935097	-432.788805	248.127253	1077.610845	-418.572424	324.509006	1007.094247	-421.121054	419.923362	959.805781	-409.062117	361.391740	870.197864	-426.148933	323.257049	791.514209	-427.387450	284.097918	714.983220	-416.967719	375.160538	766.981478	-403.331510	NaN	NaN	NaN	251.570442	583.998175	-322.281069	166.068038	550.955474	-363.793926	435.797800	490.292875	-369.863821	329.212647	484.848226	-437.552168	-223.561349	893.734453	-248.323622	-12.372477	85.387195	-454.290624	-20.647565	80.767693	-54.079024	
